<svg width="20" height="20" viewBox="0 0 20 20" fill="none" xmlns="http://www.w3.org/2000/svg">
<path fill-rule="evenodd" clip-rule="evenodd" d="M9.16671 15.8337C9.16671 16.7541 8.42052 17.5003 7.50004 17.5003C6.57957 17.5003 5.83337 16.7541 5.83337 15.8337C5.83337 14.9132 6.57957 14.167 7.50004 14.167C8.42052 14.167 9.16671 14.9132 9.16671 15.8337ZM15.8334 15.8337C15.8334 16.7541 15.0872 17.5003 14.1667 17.5003C13.2462 17.5003 12.5 16.7541 12.5 15.8337C12.5 14.9132 13.2462 14.167 14.1667 14.167C15.0872 14.167 15.8334 14.9132 15.8334 15.8337Z" fill="#EBEDED"/>
<path d="M3.33333 2.5C2.8731 2.5 2.5 2.8731 2.5 3.33333C2.5 3.79357 2.8731 4.16667 3.33333 4.16667H3.63366C4.03089 4.16667 4.37291 4.44705 4.45081 4.83657L5.71554 11.1602C5.87134 11.9392 6.55537 12.5 7.34984 12.5H14.7546C15.5299 12.5 16.2028 11.9654 16.3781 11.2102L17.464 6.53266C17.6459 5.74898 17.0509 5 16.2464 5H6.18317L6.08511 4.50971C5.8514 3.34115 4.82536 2.5 3.63366 2.5H3.33333Z" fill="#EBEDED"/>
</svg>
