<svg width="11" height="12" viewBox="0 0 11 12" fill="none" xmlns="http://www.w3.org/2000/svg">
<g clip-path="url(#clip0_2242_8614)">
<path d="M7.5 1.125C7.5 0.826631 7.38147 0.540483 7.1705 0.329505C6.95952 0.118526 6.67337 0 6.375 0C6.07663 0 5.79048 0.118526 5.5795 0.329505C5.36853 0.540483 5.25 0.826631 5.25 1.125C5.25 1.42337 5.36853 1.70952 5.5795 1.9205C5.79048 2.13147 6.07663 2.25 6.375 2.25C6.67337 2.25 6.95952 2.13147 7.1705 1.9205C7.38147 1.70952 7.5 1.42337 7.5 1.125ZM2.94609 4.11328C3.17812 3.88125 3.49453 3.75 3.825 3.75C3.86953 3.75 3.91406 3.75234 3.95625 3.75703L3.225 5.95312C3.00703 6.60938 3.26484 7.33125 3.85312 7.69922L5.87344 8.9625L5.27812 11.0438C5.16328 11.4422 5.39531 11.857 5.79375 11.9719C6.19219 12.0867 6.60703 11.8547 6.72187 11.4562L7.39453 9.10312C7.53281 8.62031 7.33359 8.10469 6.90937 7.83984L5.57812 7.00781L6.30234 5.07656L6.42188 5.36484C6.77344 6.20391 7.59141 6.75 8.50078 6.75H9C9.41484 6.75 9.75 6.41484 9.75 6C9.75 5.58516 9.41484 5.25 9 5.25H8.50078C8.19844 5.25 7.92422 5.06719 7.80938 4.78828L7.66172 4.43672C7.31953 3.61406 6.62812 2.98594 5.775 2.72344L4.63359 2.37187C4.37344 2.29219 4.10156 2.25 3.82734 2.25C3.10078 2.25 2.40234 2.53828 1.88906 3.05391L1.34531 3.59531C1.05234 3.88828 1.05234 4.36406 1.34531 4.65703C1.63828 4.95 2.11406 4.95 2.40703 4.65703L2.94844 4.11563L2.94609 4.11328ZM2.1375 8.25H0.75C0.335156 8.25 0 8.58516 0 9C0 9.41484 0.335156 9.75 0.75 9.75H2.38125C2.82656 9.75 3.22969 9.4875 3.41016 9.08203L3.67969 8.475L3.45703 8.33438C3.04688 8.07891 2.74219 7.70625 2.56875 7.28203L2.1375 8.25Z" fill="#7A7CF3"/>
</g>
<defs>
<clipPath id="clip0_2242_8614">
<path d="M0 0H10.5V12H0V0Z" fill="white"/>
</clipPath>
</defs>
</svg>
