<svg width="11" height="11" viewBox="0 0 11 11" fill="none" xmlns="http://www.w3.org/2000/svg">
<path d="M10.5543 0.118737C10.7683 0.267057 10.8806 0.52344 10.8403 0.779822L9.48424 9.59428C9.45246 9.79981 9.32744 9.97991 9.14522 10.0816C8.963 10.1833 8.74476 10.196 8.55194 10.1155L6.01778 9.06245L4.56636 10.6325C4.37779 10.8381 4.08115 10.9059 3.82053 10.8042C3.55991 10.7024 3.3904 10.4503 3.3904 10.1706V8.39924C3.3904 8.31449 3.42218 8.23397 3.47939 8.17253L7.0306 4.29713C7.15349 4.16364 7.14925 3.95811 7.02212 3.83098C6.89499 3.70385 6.68946 3.69537 6.55597 3.81615L2.24621 7.64493L0.375259 6.70839C0.15066 6.59609 0.00657727 6.37149 0.000220691 6.12147C-0.00613589 5.87144 0.125233 5.63837 0.341357 5.51336L9.83385 0.0890732C10.0606 -0.0401773 10.3403 -0.0274642 10.5543 0.118737Z" fill="#0F0F0F"/>
</svg>
